<svg xmlns="http://www.w3.org/2000/svg" viewBox="0 0 3000 2000"><rect width="3000" height="2000" style="fill:#fff"/><path d="M2321.49,767.05C2130.16,178.9,1102.08,153.33,1023.13,813.22c0,0-61,12.07-114.72,3.84C615.27,772.21,102.32,1333.59,496,1762.57H2694.45C2932.32,1352.89,2761.47,933.7,2321.49,767.05Z" style="fill:#f6f5f5"/><path d="M1793.2,1135.33l-3.79-3.69c245.4-252.28,255.15-390.26,269.91-599.12,5.23-74,11.15-157.63,28.14-258.61-116.22,54-210.42,128.83-280.06,222.43-56.44,75.86-97,164.17-120.5,262.49-40.07,167.56-16.4,307.93-16.15,309.33l-5.22.91c-.24-1.4-24.09-142.69,16.18-311.27,23.66-99.06,64.5-188.06,121.37-264.52,71.09-95.58,167.56-171.71,286.73-226.28l4.55-2.08-.85,4.93c-17.59,103-23.61,188-28.91,263C2049.76,742.91,2040,881.66,1793.2,1135.33Z" style="fill:#dadada"/><path d="M1747,1081.14l-5.13-1.32c1-3.78,98.7-381,221.64-590.41l4.57,2.68C1845.46,700.86,1747.93,1077.36,1747,1081.14Z" style="fill:#dadada"/><path d="M1882.47,666.69l-5.29-.19c0-.76,2.24-76.48-37.32-149.36l4.65-2.52C1884.78,588.82,1882.5,665.92,1882.47,666.69Z" style="fill:#dadada"/><path d="M1826.07,820.07l-3.73-3.76c56.23-55.84,129.7-73.09,130.43-73.25l1.18,5.16C1953.23,748.38,1881.19,765.33,1826.07,820.07Z" style="fill:#dadada"/><path d="M1979.87,1297l-.52-5.26c95.68-9.48,173.3-73.6,237.28-196,56.69-108.46,95.63-247,133.28-381.06,24.42-86.9,47.51-169.07,74.46-240.24-275.36,68.82-389.5,287.1-390.63,289.31l-4.71-2.4c1.15-2.25,117.64-225.22,399-293.25l4.89-1.19-1.8,4.71c-27.64,72-51.18,155.79-76.1,244.49-37.73,134.28-76.75,273.13-133.69,382.08C2156.44,1222.27,2077.47,1287.31,1979.87,1297Z" style="fill:#dadada"/><path d="M1956.43,1167l-4.83-2.14c1.6-3.63,162.45-363.83,297.57-468.56l3.24,4.18C2197,743.44,2128.3,837.67,2053.68,973,1997.21,1075.42,1956.83,1166.13,1956.43,1167Z" style="fill:#dadada"/><path d="M2134.17,836.66l-5.2-1c.08-.4,7.54-41.18,14.19-139.73l5.27.35C2141.76,795.23,2134.25,836.25,2134.17,836.66Z" style="fill:#dadada"/><path d="M2044,990.08l-3-4.36c.73-.5,74.21-50.61,170.67-72.6l1.17,5.16C2117.35,940,2044.71,989.58,2044,990.08Z" style="fill:#dadada"/><path d="M762.8,1642.73c-237.63-244.31-247.08-377.93-261.37-580.2-5.11-72.26-10.9-154.16-27.85-253.29l-.84-4.94,4.55,2.09c260,119,357.23,322.75,393.05,472.68,38.78,162.37,15.81,298.44,15.58,299.8l-5.21-.91c.23-1.35,23-136.51-15.56-297.85-35.36-147.84-131-348.42-385.51-466.81,16.35,97.16,22,177.68,27.07,248.86,14.21,201.11,23.6,334,259.89,576.88Z" style="fill:#dadada"/><path d="M807.32,1590.5c-.93-3.63-94.87-366.2-212.89-567.22l4.56-2.68c118.4,201.67,212.52,564.94,213.45,568.59Z" style="fill:#dadada"/><path d="M676.82,1191.37c0-.75-2.23-75,36.56-146.49l4.65,2.52c-38.08,70.16-35.95,143-35.93,143.78Z" style="fill:#dadada"/><path d="M731.16,1339.14c-53.06-52.69-122.41-69-123.1-69.17l1.17-5.16c.71.17,71.49,16.78,125.66,70.57Z" style="fill:#dadada"/><path d="M599.47,1735.52c-204.16-19-285.89-245.31-358-445-24.38-67.49-47.4-131.24-74.1-186.11l-2.36-4.84,5.27,1.09c137.92,28.7,233,88.87,288.44,134.29,60.17,49.27,88.11,92.42,88.39,92.85l-4.46,2.85C541.57,1329,432.41,1162.56,174.47,1107c25.83,54,48.27,116.12,72,181.77C318,1486.93,399.14,1711.58,600,1730.26Z" style="fill:#dadada"/><path d="M619.81,1637.2c-1.55-2.76-155.76-276.62-282.36-356.94l2.83-4.47c127.73,81,282.59,356,284.15,358.82Z" style="fill:#dadada"/><path d="M449.47,1384.48c-.07-.31-7.61-31.55-15-106.67l5.26-.52c7.39,74.66,14.85,105.63,14.92,105.93Z" style="fill:#dadada"/><path d="M535.91,1502.2c-.69-.39-69.3-38.82-158.89-56.46l1-5.19c90.45,17.81,159.77,56.66,160.46,57Z" style="fill:#dadada"/><path d="M2497.58,1759l-1.25-5.14c224.79-54.89,267.17-296.35,308.15-529.86,14.39-82,29.26-166.66,52-240-223.76,42.87-350.51,197.37-417.56,319.86-73.23,133.78-93.06,259.34-93.24,260.59l-5.23-.8c.19-1.26,20.12-127.6,93.75-262.18,68-124.34,197.1-281.39,425.65-323.49l4.33-.79-1.34,4.19c-23.37,73.93-38.5,160.14-53.14,243.5C2768.42,1460.07,2725.73,1703.26,2497.58,1759Z" style="fill:#dadada"/><path d="M2478.34,1626.6l-5.1-1.41c.82-3,83.7-297.63,218.5-414l3.45,4C2561.61,1330.51,2479.16,1623.66,2478.34,1626.6Z" style="fill:#dadada"/><path d="M2573.61,1379.53l-5.18-1.07c.12-.6,12.22-60.64,8-148.78l5.29-.26C2586,1318.29,2573.73,1378.93,2573.61,1379.53Z" style="fill:#dadada"/><path d="M2502.33,1507.79l-3.25-4.18c.73-.57,74.7-57.69,176.9-94l1.77,5C2576.35,1450.63,2503.06,1507.22,2502.33,1507.79Z" style="fill:#dadada"/><path d="M1978.94,677.1a17.2,17.2,0,1,1,17.2-17.19A17.21,17.21,0,0,1,1978.94,677.1Zm0-29.09a11.9,11.9,0,1,0,11.91,11.9A11.92,11.92,0,0,0,1978.94,648Z" style="fill:#dadada"/><path d="M553.21,943a17.2,17.2,0,1,1,17.2-17.19A17.21,17.21,0,0,1,553.21,943Zm0-29.1a11.91,11.91,0,1,0,11.9,11.91A11.92,11.92,0,0,0,553.21,913.86Z" style="fill:#dadada"/><path d="M2148.23,1326.09a17.19,17.19,0,1,1,17.19-17.19A17.21,17.21,0,0,1,2148.23,1326.09Zm0-29.1a11.91,11.91,0,1,0,11.91,11.91A11.92,11.92,0,0,0,2148.23,1297Z" style="fill:#dadada"/><path d="M2733.25,1142.68a17.2,17.2,0,1,1,17.19-17.19A17.21,17.21,0,0,1,2733.25,1142.68Zm0-29.1a11.91,11.91,0,1,0,11.91,11.91A11.92,11.92,0,0,0,2733.25,1113.58Z" style="fill:#dadada"/><circle cx="2091.36" cy="1081.84" r="11.9" style="fill:#dadada"/><circle cx="2639.35" cy="1520.08" r="11.9" style="fill:#dadada"/><circle cx="1763.34" cy="741.9" r="11.9" transform="translate(1018.97 2504.2) rotate(-89.92)" style="fill:#dadada"/><circle cx="449.17" cy="1558.88" r="11.9" style="fill:#dadada"/><path d="M788.15,748.91a16,16,0,0,1-4.6-.68l-32.91-9.82a16,16,0,0,1-10.75-19.93l11.22-37.23a167.93,167.93,0,0,1-38-27.61L681,675.29A16.08,16.08,0,0,1,658.75,671l-19.24-28.35a16,16,0,0,1,4.3-22.22l31.7-21.4A166.46,166.46,0,0,1,663,549.18l-37.62-4.3a16,16,0,0,1-14.1-17.72l3.94-34A16,16,0,0,1,633,479.06l37.14,4.26a165.74,165.74,0,0,1,21.51-43.81L666,412.92a16,16,0,0,1,.45-22.63l24.77-23.74a16.09,16.09,0,0,1,22.68.44l25.41,26.36a166.47,166.47,0,0,1,46.62-20.62l-2.36-36.32a16,16,0,0,1,15-17l34.28-2.23a16,16,0,0,1,17,14.92l2.37,36.32a166.38,166.38,0,0,1,48.88,14.41l21.79-29.43A16.07,16.07,0,0,1,945.28,350l27.64,20.32a16,16,0,0,1,3.38,22.38l-22,29.69a166.81,166.81,0,0,1,27,40.65l36.27-9A16.06,16.06,0,0,1,1037,465.66l8.31,33.23a16,16,0,0,1-11.68,19.4l-36.74,9.15a165.47,165.47,0,0,1-6,51.06l34.22,17.1a16,16,0,0,1,7.14,21.48l-15.39,30.61a16.09,16.09,0,0,1-21.53,7.13l-34.63-17.31a167.19,167.19,0,0,1-34.1,32.3l15.94,35.47a16,16,0,0,1-8.08,21.15l-31.34,14A16.09,16.09,0,0,1,882,732.4l-16-35.65a168.87,168.87,0,0,1-51.2,3.33L803.52,737.5A16.08,16.08,0,0,1,788.15,748.91ZM713.73,646.83l1.55,1.53a162.23,162.23,0,0,0,40.2,29.2l2,1L745,720a10.57,10.57,0,0,0,.82,8.15,10.69,10.69,0,0,0,6.38,5.19l32.91,9.83A10.76,10.76,0,0,0,798.45,736L811,694.39l2.17.22a166,166,0,0,0,27,.49,163.76,163.76,0,0,0,26.73-4l2.13-.5,17.81,39.62a10.78,10.78,0,0,0,14.2,5.39l31.34-14a10.69,10.69,0,0,0,5.42-14.15L920.05,668l1.81-1.25a162.39,162.39,0,0,0,36.08-34.17l1.33-1.72,38.51,19.25a10.77,10.77,0,0,0,14.43-4.78l15.39-30.61a10.67,10.67,0,0,0-4.78-14.36l-38.16-19.08.62-2.12a160.18,160.18,0,0,0,6.26-53.6l-.11-2.18,41-10.2a10.71,10.71,0,0,0,7.83-13L1031.91,467a10.76,10.76,0,0,0-13-7.8l-40.52,10.1-.91-2A161.59,161.59,0,0,0,949,424.37l-1.49-1.61,24.57-33.19a10.67,10.67,0,0,0-2.27-15l-27.64-20.33a10.78,10.78,0,0,0-15,2.26l-24.39,33-2-1a161.39,161.39,0,0,0-51.37-15.13l-2.18-.26-2.64-40.7a10.75,10.75,0,0,0-11.43-10l-34.27,2.23a10.74,10.74,0,0,0-10,11.38l2.65,40.7-2.13.54a161,161,0,0,0-49,21.67l-1.84,1.21-28.45-29.51a10.79,10.79,0,0,0-15.21-.3l-24.77,23.74a10.7,10.7,0,0,0-.3,15.14L698.45,439l-1.26,1.79A161,161,0,0,0,674.51,487l-.65,2.1-41.49-4.75a10.72,10.72,0,0,0-11.92,9.42l-3.93,34A10.71,10.71,0,0,0,626,539.62l41.93,4.8.17,2.17a161.37,161.37,0,0,0,13.16,52.35l.89,2-35.36,23.87a10.68,10.68,0,0,0-2.88,14.86L663.13,668a10.77,10.77,0,0,0,14.93,2.87Zm115.93-15.76c-50.23,0-92.62-39-95.93-89.7-3.43-52.79,36.85-98.54,89.79-102A95.94,95.94,0,1,1,836,630.86h0C833.87,631,831.75,631.07,829.66,631.07Zm.27-186.61c-2,0-4,.07-6.06.2-50,3.26-88.1,46.49-84.86,96.37s46.64,87.8,96.64,84.56h0a90.65,90.65,0,0,0-5.72-181.13Z" style="fill:#dadada"/><path d="M1638.74,1759.93h-787a49.31,49.31,0,0,1-49.3-49.31V560.35a49.3,49.3,0,0,1,49.3-49.3h787a49.31,49.31,0,0,1,49.31,49.3V1710.62A49.31,49.31,0,0,1,1638.74,1759.93Z" style="fill:#86a7ff"/><rect x="1089.2" y="566" width="312.13" height="52.4" style="fill:#d3dfff"/><rect x="890.81" y="698.27" width="708.9" height="157.22" style="fill:#dadada"/><rect x="921.84" y="719.77" width="646.85" height="114.21" style="fill:#fff"/><path d="M1414.83,991.9h-48.17a26.18,26.18,0,0,1-26.17-26.18V954.59a26.18,26.18,0,0,1,26.17-26.18h48.17A26.18,26.18,0,0,1,1441,954.59v11.13A26.18,26.18,0,0,1,1414.83,991.9Z" style="fill:#1f3c88"/><path d="M1573.54,991.9h-48.17a26.18,26.18,0,0,1-26.17-26.18V954.59a26.18,26.18,0,0,1,26.17-26.18h48.17a26.18,26.18,0,0,1,26.17,26.18v11.13A26.18,26.18,0,0,1,1573.54,991.9Z" style="fill:#1f3c88"/><path d="M1587.23,1151.5h-96.74A12.46,12.46,0,0,1,1478,1139v-58a12.47,12.47,0,0,1,12.47-12.47h96.74a12.47,12.47,0,0,1,12.46,12.47v58A12.46,12.46,0,0,1,1587.23,1151.5Z" style="fill:#1f3c88"/><path d="M1393.11,1151.5h-96.74a12.46,12.46,0,0,1-12.46-12.46v-58a12.46,12.46,0,0,1,12.46-12.47h96.74a12.47,12.47,0,0,1,12.46,12.47v58A12.46,12.46,0,0,1,1393.11,1151.5Z" style="fill:#1f3c88"/><path d="M1199,1151.5h-96.74a12.46,12.46,0,0,1-12.46-12.46v-58a12.46,12.46,0,0,1,12.46-12.47H1199a12.47,12.47,0,0,1,12.47,12.47v58A12.46,12.46,0,0,1,1199,1151.5Z" style="fill:#1f3c88"/><path d="M1004.88,1151.5H908.14A12.46,12.46,0,0,1,895.67,1139v-58a12.47,12.47,0,0,1,12.47-12.47h96.74a12.47,12.47,0,0,1,12.46,12.47v58A12.46,12.46,0,0,1,1004.88,1151.5Z" style="fill:#1f3c88"/><path d="M1587.23,1301.4h-96.74a12.46,12.46,0,0,1-12.47-12.46v-58a12.46,12.46,0,0,1,12.47-12.46h96.74a12.46,12.46,0,0,1,12.46,12.46v58A12.46,12.46,0,0,1,1587.23,1301.4Z" style="fill:#1f3c88"/><path d="M1393.11,1301.4h-96.74a12.46,12.46,0,0,1-12.46-12.46v-58a12.46,12.46,0,0,1,12.46-12.46h96.74a12.46,12.46,0,0,1,12.46,12.46v58A12.46,12.46,0,0,1,1393.11,1301.4Z" style="fill:#d3dfff"/><path d="M1199,1301.4h-96.74a12.46,12.46,0,0,1-12.46-12.46v-58a12.46,12.46,0,0,1,12.46-12.46H1199a12.46,12.46,0,0,1,12.47,12.46v58A12.46,12.46,0,0,1,1199,1301.4Z" style="fill:#d3dfff"/><path d="M1004.88,1301.4H908.14a12.46,12.46,0,0,1-12.47-12.46v-58a12.46,12.46,0,0,1,12.47-12.46h96.74a12.46,12.46,0,0,1,12.46,12.46v58A12.46,12.46,0,0,1,1004.88,1301.4Z" style="fill:#d3dfff"/><path d="M1587.23,1451.31h-96.74a12.47,12.47,0,0,1-12.47-12.47v-58a12.46,12.46,0,0,1,12.47-12.46h96.74a12.46,12.46,0,0,1,12.46,12.46v58A12.47,12.47,0,0,1,1587.23,1451.31Z" style="fill:#1f3c88"/><path d="M1393.11,1451.31h-96.74a12.47,12.47,0,0,1-12.46-12.47v-58a12.46,12.46,0,0,1,12.46-12.46h96.74a12.46,12.46,0,0,1,12.46,12.46v58A12.47,12.47,0,0,1,1393.11,1451.31Z" style="fill:#d3dfff"/><path d="M1199,1451.31h-96.74a12.47,12.47,0,0,1-12.46-12.47v-58a12.46,12.46,0,0,1,12.46-12.46H1199a12.46,12.46,0,0,1,12.47,12.46v58A12.47,12.47,0,0,1,1199,1451.31Z" style="fill:#d3dfff"/><path d="M1004.88,1451.31H908.14a12.47,12.47,0,0,1-12.47-12.47v-58a12.46,12.46,0,0,1,12.47-12.46h96.74a12.46,12.46,0,0,1,12.46,12.46v58A12.47,12.47,0,0,1,1004.88,1451.31Z" style="fill:#d3dfff"/><path d="M1587.23,1606.5h-96.74A12.47,12.47,0,0,1,1478,1594v-58a12.47,12.47,0,0,1,12.47-12.47h96.74a12.46,12.46,0,0,1,12.46,12.47v58A12.46,12.46,0,0,1,1587.23,1606.5Z" style="fill:#fbc343"/><path d="M1393.11,1606.5h-96.74a12.46,12.46,0,0,1-12.46-12.47v-58a12.46,12.46,0,0,1,12.46-12.47h96.74a12.46,12.46,0,0,1,12.46,12.47v58A12.46,12.46,0,0,1,1393.11,1606.5Z" style="fill:#d3dfff"/><path d="M1199,1606.5h-96.74a12.46,12.46,0,0,1-12.46-12.47v-58a12.46,12.46,0,0,1,12.46-12.47H1199a12.47,12.47,0,0,1,12.47,12.47v58A12.47,12.47,0,0,1,1199,1606.5Z" style="fill:#d3dfff"/><path d="M1004.88,1606.5H908.14A12.47,12.47,0,0,1,895.67,1594v-58a12.47,12.47,0,0,1,12.47-12.47h96.74a12.46,12.46,0,0,1,12.46,12.47v58A12.46,12.46,0,0,1,1004.88,1606.5Z" style="fill:#d3dfff"/><path d="M1427.84,802.77a35.59,35.59,0,0,0,7-.3,24.07,24.07,0,0,0,13.37-6.19c4.22-3.83,7.27-9.44,8.45-17h-.29a18.77,18.77,0,0,1-15,6.88c-11.51,0-18.88-8.65-18.88-19.57,0-12.09,8.75-22.72,21.83-22.72s21.13,10.63,21.13,26.95c0,14.06-4.71,23.9-11,30a32,32,0,0,1-18.58,8.56,40.32,40.32,0,0,1-8,.49ZM1431,766c0,8,4.82,13.57,12.29,13.57a14.3,14.3,0,0,0,12.59-6.68,5.74,5.74,0,0,0,.78-3.15c0-10.91-4-19.27-13.07-19.27C1436.2,750.46,1431,757,1431,766Z" style="fill:#3a6bea"/><path d="M1478.32,802.77a35.51,35.51,0,0,0,7-.3,24,24,0,0,0,13.37-6.19c4.23-3.83,7.28-9.44,8.46-17h-.29a18.8,18.8,0,0,1-15,6.88c-11.5,0-18.88-8.65-18.88-19.57,0-12.09,8.75-22.72,21.83-22.72s21.14,10.63,21.14,26.95c0,14.06-4.72,23.9-11,30a32,32,0,0,1-18.59,8.56,40.23,40.23,0,0,1-8,.49v-7.08Zm3.14-36.78c0,8,4.82,13.57,12.3,13.57a14.3,14.3,0,0,0,12.58-6.68,5.65,5.65,0,0,0,.79-3.15c0-10.91-4-19.27-13.08-19.27C1486.68,750.46,1481.46,757,1481.46,766Z" style="fill:#3a6bea"/><rect x="1920.75" y="1408.15" width="483.16" height="354.42" style="fill:#fbc343"/><rect x="2275.2" y="1488.39" width="128.73" height="5.29" style="fill:#e49b31"/><rect x="2179.97" y="1682.38" width="223.95" height="5.29" style="fill:#e49b31"/><path d="M2161.61,1536.57A406.47,406.47,0,0,1,2143,1658.21a145,145,0,0,1-138.39,101.68h-83.85V1408.17h220.07A407,407,0,0,1,2161.61,1536.57Z" style="fill:#e49b31"/><path d="M1719.72,1700.78v37.77a24,24,0,0,1-24,24H1297.39a24,24,0,0,1-24-24v-37.77a24,24,0,0,1,24-24H1695.7A24,24,0,0,1,1719.72,1700.78Z" style="fill:#fbc343"/><path d="M1670.36,1614.91v37.83a24,24,0,0,1-24,24H1248a24,24,0,0,1-24-24v-37.83a24,24,0,0,1,24-24h398.3A24.07,24.07,0,0,1,1670.36,1614.91Z" style="fill:#fbc343"/><path d="M1719.72,1700.78v37.77a24,24,0,0,1-24,24H1410.08c-19.74-24.33-31.8-55.71-39-85.81-8.35-34.49-10.52-67.24-11-85.87h286.31a24.07,24.07,0,0,1,24,24v37.83a24,24,0,0,1-24,24h49.36A24,24,0,0,1,1719.72,1700.78Z" style="fill:#e49b31"/><path d="M1929.05,997l-32.16,98.78-2.38,7.3L1879.59,1149l-.11.32-48.09-1.06L1646.87,1144l-13.49-38.62-2.28-6.46-35.71-102C1706.17,1035.37,1797.48,951.51,1929.05,997Z" style="fill:#fbc343"/><path d="M1894.51,1103.09,1879.59,1149l-48.19-.74L1646.87,1144l-13.49-38.62C1696.81,1104.31,1806,1102.83,1894.51,1103.09Z" style="fill:#e49b31"/><path d="M2100.67,1660.89a145,145,0,0,1-138.39,101.68H1544.34a134.37,134.37,0,0,1-129.5-98.67,421.76,421.76,0,0,1-15-101.9c0-3.28-.1-6.56-.1-9.84,0-3.87,0-7.75.16-11.62,3.41-123.29,63.65-238.13,160.35-314.69l100-79.16L1889,1152l125.78,120.35a277.49,277.49,0,0,1,46.1,56.82,407.27,407.27,0,0,1,39.79,331.74Z" style="fill:#fbc343"/><path d="M1728.52,1652.05v-44.21c-31.21-1.4-61.47-9.78-79.17-20l14-54.49c19.56,10.69,47,20.47,77.31,20.47,26.54,0,44.71-10.24,44.71-28.86,0-17.7-14.91-28.89-49.37-40.53-49.83-16.76-83.84-40.05-83.84-85.21,0-41,28.89-73.11,78.72-82.89v-44.26h45.61v41c31.21,1.41,52.18,7.93,67.53,15.36L1830.52,1381c-12.1-5.12-33.52-15.85-67.08-15.85-30.26,0-40,13-40,26.09,0,15.35,16.3,25.14,55.89,40,55.4,19.57,77.77,45.16,77.77,87.1,0,41.45-29.35,76.83-82.89,86.16v47.47Z" style="fill:#fff"/><path d="M1926.87,1189.4H1603.21a24.41,24.41,0,0,1-24.34-24.34V1154.7a24.41,24.41,0,0,1,24.34-24.34h323.66a24.41,24.41,0,0,1,24.34,24.34v10.36A24.41,24.41,0,0,1,1926.87,1189.4Z" style="fill:#ed7545"/><path d="M2100.67,1660.89a145,145,0,0,1-138.39,101.68H1544.34a134.37,134.37,0,0,1-129.5-98.67,421.76,421.76,0,0,1-15-101.9c69.15,65.93,150.62,152.11,341.07,154.76,236.49,3.28,338.42-107.56,356.72-308.56A406.61,406.61,0,0,1,2100.67,1660.89Z" style="fill:#e49b31;opacity:0.4000000059604645;isolation:isolate"/><polygon points="477.38 1689.39 435.06 1673.51 336.75 1759.93 453.09 1759.93 477.38 1689.39" style="fill:#102048"/><polygon points="477.38 1689.39 570.85 1689.39 560.26 1756.4 453.09 1759.93 477.38 1689.39" style="fill:#f9b384"/><path d="M852.53,1313.73l-3.44,23.44L847,1351.29l-14.81,101.53-5.66,38.78-5,34.6-13.17,90.16-9.15,62.53a95.73,95.73,0,0,1-94.75,81.9H497.66l.27-2.64,6.71-68.78,1-9.68,144.16-27.78,19.36-140.63c-9.52-40.89-7.2-80.25-3.07-107.87,3.49-23.55,8.36-38.52,8.36-38.52l64.33-18.46Z" style="fill:#1f3c88"/><path d="M808.36,1616.36l-9.15,62.53a95.73,95.73,0,0,1-94.75,81.9H693.88C788.63,1743.84,770.11,1622.81,808.36,1616.36Z" style="fill:#102048"/><rect x="396.99" y="1740.97" width="38.41" height="5.29" transform="translate(-1284.33 1176.49) rotate(-58.13)" style="fill:#fff"/><path d="M832.22,1452.82l-10.69,73.38c-29.78-8.51-69-51.09-69-51.09Z" style="fill:#102048"/><path d="M1051.33,1640s-50.25,25.79-140.19,9.26l74.73-49.6Z" style="fill:#102048"/><polygon points="1023.67 1675.56 943.32 1677.36 942.84 1660.01 941.57 1612.44 1012.99 1617.73 1016.37 1636.09 1023.67 1675.56" style="fill:#f9b384"/><polygon points="1016.37 1636.09 942.84 1660.01 941.57 1612.44 1012.99 1617.73 1016.37 1636.09" style="fill:#e28b6d"/><polygon points="1114.82 1760.59 1026.21 1689.16 1023.69 1675.58 943.3 1677.36 945.53 1760.59 1114.82 1760.59" style="fill:#102048"/><rect x="1021.24" y="1718.67" width="37.43" height="5.29" transform="translate(-753.9 812.17) rotate(-31.98)" style="fill:#fff"/><path d="M674.4,1364.89,962,1319.22a70.54,70.54,0,0,1,39.67,5.21h0a70.45,70.45,0,0,1,41.81,62.22l7.89,253.36s-82-17.2-140.19,9.26L905.85,1476c-35.16,16-96.06,19.4-157.78,13.22Z" style="fill:#1f3c88"/><path d="M1010.82,1632.07h-5.29c0-43.84,1.06-80.23,2-112.34,2.27-78.18,3.52-121.25-16.39-139.48-16.12-14.75-48.33-14.29-95.06-8.76-50.09,5.84-70.06-47.48-70.25-48l5-1.81c.75,2,18.74,50.1,64.66,44.57,49.46-5.84,81.56-6.06,99.25,10.12,21.7,19.86,20.5,61.19,18.11,143.54C1011.88,1552,1010.82,1588.31,1010.82,1632.07Z" style="fill:#3a6bea"/><path d="M911.24,1617.35l-1.88-4.95c.67-.25,67.75-25.21,141.78-6.7l-1.29,5.13C977.51,1592.72,911.9,1617.1,911.24,1617.35Z" style="fill:#3a6bea"/><path d="M527,1761.55c-8.24-16.48,4.51-84.75,5.06-87.65l5.19,1c-3.63,19.25-11.7,71.93-5.52,84.29Z" style="fill:#3a6bea"/><path d="M823.91,1343.73s-20.31,43.22-66.12,72.32c-15.56,9.84-30.85,14.34-44.55,14.39-20.68.06-37.88-10-47.19-27,3.49-23.55,8.36-38.52,8.36-38.52l64.33-18.46,64.91-2.07Z" style="fill:#102048"/><polygon points="772.27 1083.22 772.27 1144.45 832.23 1144.45 832.23 1091.49 772.27 1083.22" style="fill:#ed7545"/><polygon points="832.23 1053.62 772.27 1053.62 772.27 1083.22 832.23 1091.49 832.23 1053.62" style="fill:#f9b384"/><path d="M790,1062c1.32,0,14.46,20.61,42.28,29.49l-.4-32.14Z" style="fill:#102048"/><path d="M839.28,980.44s33.07,89.06-9.7,94.79-49.37-13.67-49.37-13.67L767,1014.38l29.54-39.68Z" style="fill:#f9b384"/><circle cx="850.27" cy="1023.22" r="9.26" transform="translate(-188.51 1854.41) rotate(-88.94)" style="fill:#f9b384"/><path d="M794.32,1022.76s2.2-47.62,45-42.32c0,0-28.78-37-66.7-22.63-19.26,7.27-32.14,25.66-34,46.17-2.44,26.49,13,56.7,34.64,62a413.47,413.47,0,0,1,18.91-37Z" style="fill:#102048"/><path d="M804.54,1020.53c3.58,7.61,1.2,16.25-5.3,19.3s-14.66-.63-18.24-8.23-1.2-16.24,5.3-19.3S801,1012.93,804.54,1020.53Z" style="fill:#f9b384"/><circle cx="824.79" cy="1028.51" r="12.12" style="fill:#eb5d60;opacity:0.4000000059604645;isolation:isolate"/><path d="M795.46,1031.14a1.33,1.33,0,0,1-1.32-1.32,9.13,9.13,0,0,0-8.34-8.84,1.33,1.33,0,0,1-1.13-1.49,1.36,1.36,0,0,1,1.49-1.13c10.5,1.47,10.62,11.35,10.62,11.45a1.33,1.33,0,0,1-1.32,1.33Z" style="fill:#102048"/><path d="M995.79,995.87s46.24,3.52,71.42,33.06L1009.94,1043Z" style="fill:#ba5c36"/><path d="M1077.74,970.53c.21,4.23-11.43,25.34-20,40.31-5,8.62-8.94,15.19-8.94,15.19l-30.84,9-22-33.17-1.05-1.64s.31-1.43.89-4v0c.06-.06.06-.16.11-.32,3.7-15.71,16.82-69.26,24.39-71,6.66-1.54,2.75,27.77,2.75,27.77s16.45-47.67,26.19-45.71c7.77,1.53-7.46,47.25-7.46,47.25s5.45-5.72,11-3.92a9.75,9.75,0,0,1,6.61,7.46s3.92-2.75,7.83-.42,3.54,9.79,3.54,9.79S1077.32,963.91,1077.74,970.53Z" style="fill:#f9b384"/><path d="M758.26,1123l-21,81.9-32.48,127c-22.06,9.79-45.34,13.39-63.8,10.32-21.43-3.54-36.4-16-35.39-38.09C608.28,1244.53,758.26,1123,758.26,1123Z" style="fill:#ed7545"/><path d="M754.24,1146.21l-16.93,58.64-32.48,127c-22.06,9.79-45.34,13.39-63.8,10.32C688.11,1207.05,754.24,1146.21,754.24,1146.21Z" style="fill:#ba5c36"/><path d="M885.17,1331.51c-43.64,3-181.19,116.71-214.25,43.33,0,0,4.6-273.74,145.9-268.66a59.62,59.62,0,0,1,54.55,41.42,278.89,278.89,0,0,1,9.41,43,571.22,571.22,0,0,1,5.4,68.36C886.76,1280.08,886.5,1304.15,885.17,1331.51Z" style="fill:#ed7545"/><path d="M886.18,1258.92c-21.85-14.13-44.65-56.72-44.65-56.72l39.25-11.64A571.22,571.22,0,0,1,886.18,1258.92Z" style="fill:#ba5c36"/><path d="M1057.74,1010.84c-5,8.62-8.94,15.18-8.94,15.18l-30.84,9-22-33.17-.16-5.61v-.37h.11Z" style="fill:#e28b6d"/><path d="M816.83,1106.18s67.86,4.76,108.86,12.7l70.1-123q32.12,25.7,71.41,33.06l-61.34,144.56a83,83,0,0,1-71.65,46.28l-105.07,3.59Z" style="fill:#ed7545"/><path d="M925.69,1120.86l-.36,0c-1.29-.24-129.43-23.74-151.26-4.44a2,2,0,1,1-2.63-3c23.27-20.57,149.26,2.51,154.61,3.5a2,2,0,0,1-.36,3.94Z" style="fill:#ba5c36"/><polygon points="2329.87 1647.06 2338.68 1759.93 2191.88 1759.93 2265.94 1708.79 2264.62 1638.24 2329.87 1647.06" style="fill:#102048"/><polygon points="2546.33 1599 2586 1695.56 2485.49 1780.21 2500.04 1684.98 2480.2 1621.49 2546.33 1599" style="fill:#102048"/><path d="M2368.68,1054.49a109.15,109.15,0,0,0-3.71,14.07c-1.95,9.79-3.65,22.28-5.08,37-4.65,48-6.61,119.41-7.14,195.23-1.11,170.73,5.35,363.94,5.35,363.94l-26.88-.42-66.13-1-23.38-.37c-35.45-270.46-25.34-498.86-20-578.38.16-2.75.37-5.29.48-7.67,1.11-14.6,1.85-22.38,1.85-22.38Z" style="fill:#1f3c88"/><path d="M2571.45,1624.13l-13.43,3.34-70.47,17.62-43.06,10.79s-51-189.25-91.74-355.11c-19.57-80-36.82-154.54-44.75-199.78-2.76-16-4.4-28.3-4.61-35.92l61.58,3.49,77.77,4.44s1.91,11.17,5.61,31.22C2463.16,1184.16,2506.59,1405.52,2571.45,1624.13Z" style="fill:#1f3c88"/><path d="M2448.35,1104.22a667.26,667.26,0,0,1-88.46,1.32c-18.57-1-36-2.59-51.89-4.55a661.55,661.55,0,0,1-86.29-16.45c-9-2.44-14-4-14-4l14.45-3.65,89.09-22.38h57.39a111,111,0,0,0-3.7,14.07l77.77,4.44S2444.65,1084.17,2448.35,1104.22Z" style="fill:#102048"/><path d="M2355.5,1321.42c-4.27-17.94-24.49-102.9-27.12-117.28l-40.89-15.33,1.86-5,44,16.52v1.83c.3,3.92,16.47,72.72,27.26,118Z" style="fill:#3a6bea"/><path d="M2251.69,1398.85c-19.24,0-31.46-4.78-32.14-5l2-4.92c.21.09,21.79,8.45,52.3,2.51l1,5.2A121.74,121.74,0,0,1,2251.69,1398.85Z" style="fill:#3a6bea"/><path d="M2404.85,1395.13a138.34,138.34,0,0,1-23.46-2.07l1-5.2c.36.07,36.14,6.69,52.65-4.85l3,4.33C2429.26,1393.5,2416.21,1395.13,2404.85,1395.13Z" style="fill:#3a6bea"/><rect x="2273.72" y="1703.78" width="5.29" height="26.1" transform="matrix(0.61, -0.79, 0.79, 0.61, -470.9, 2479.63)" style="fill:#fff"/><rect x="2511.51" y="1675.49" width="5.29" height="30.45" transform="translate(1.63 3383.86) rotate(-67.9)" style="fill:#fff"/><path d="M2291.07,765.28S2200.26,776.74,2177.33,879l27.33,121.69-12.34,81.12s123.44,12.35,250.41-8.82l-38.58-206.77Z" style="fill:#ed7545"/><path d="M2347.5,1024.53s-27.33-20.06,8.38-108l23.8,86.63Z" style="fill:#6e3620"/><path d="M2241,914l-6.6-12.47L2336,847.7a5.81,5.81,0,0,1,7.86,2.42l1.16,2.18a5.82,5.82,0,0,1-2.42,7.86Z" style="fill:#102048"/><path d="M2370.42,995.87l-2.7-1.48-35.07-18.94-58.77-31.8c-1.06-7.09-.27-13.12,4-17.25l-2.91-1.16a15.5,15.5,0,0,1-9.2-11.43l-.11-.64a26.69,26.69,0,0,1-.31-12.54l1.37-1.79c3.44-4.5,5-6.78,9.42-10.32l-7.51.42s-18.52,5.08-9.9-6.82c5.93-8.26,19.21-15.24,26.77-18.73a8.31,8.31,0,0,1,9.47,1.69c25.45,26.4,70.2,58,70.2,58l.48,6.45L2370,989Z" style="fill:#f9b384"/><path d="M2301.06,894.77l-16-7.82a8.69,8.69,0,0,0-5.36-.76l-17.05,3-.46-2.6,17.06-3a11.45,11.45,0,0,1,7,1l16,7.82Z" style="fill:#e28b6d"/><path d="M2298.09,909.81l-19.2-7.36a7.44,7.44,0,0,0-2.68-.49h-10.93v-2.65h10.93a10.15,10.15,0,0,1,3.62.67l19.21,7.36Z" style="fill:#e28b6d"/><path d="M2295.45,924.8,2278,918.21a9.22,9.22,0,0,0-4.33-.54l-7.15.81-.3-2.63,7.15-.81a12,12,0,0,1,5.57.7l17.44,6.58Z" style="fill:#e28b6d"/><polygon points="2369.95 988.99 2367.72 994.39 2332.65 975.45 2355.87 916.51 2365.61 929.58 2369.95 988.99" style="fill:#e28b6d"/><path d="M2347.5,1024.53s52.47,49.82,95.23,48.49l-12.35-58.63Z" style="fill:#ba5c36"/><path d="M2291.07,765.28a138.78,138.78,0,0,1,17.23-.3c105.9,3.62,187,94.75,181.85,200.59-2.13,43.75-13.5,87.18-50.07,88l-92.58-29.09c8.73-32.75,15.25-66.71,8.38-108l43,20.5Z" style="fill:#ed7545"/><polygon points="2321.28 1020.47 2191.88 1023.64 2188.33 1012.69 2175.32 972.69 2137.65 856.99 2267.05 853.81 2321.28 1020.47" style="fill:#d3dfff"/><path d="M2202.77,958.83s-.21,35.77-14.44,53.86l-13-40Z" style="fill:#1f3c88;opacity:0.30000001192092896;isolation:isolate"/><path d="M2140,956c4.08-13.16,11.51-25.31,19.67-36.27,2.6-3.49,8.26-12.06,13.68-10.76,11,2.65,0,22,0,22s10.58-15.88,14.55-7.94-1.76,16.75-1.76,16.75,16.75-11,10.58,11c0,0,13.67-1.77,5.29,13.22-6,10.7-9.85,22.63-17.34,32.46s-21.72,15.45-33.5,9.81c-13.85-6.64-15.62-24.35-13.91-37.83A73.52,73.52,0,0,1,2140,956Z" style="fill:#f9b384"/><path d="M2163.77,952.55a1.4,1.4,0,0,1-.53-.11,1.33,1.33,0,0,1-.68-1.75l12.57-28.44a1.32,1.32,0,1,1,2.41,1.08L2165,951.76A1.31,1.31,0,0,1,2163.77,952.55Z" style="fill:#e28b6d"/><path d="M2176.67,963.13a1.38,1.38,0,0,1-.56-.12,1.32,1.32,0,0,1-.64-1.76l11.9-25.46a1.34,1.34,0,0,1,1.76-.64,1.33,1.33,0,0,1,.64,1.76l-11.91,25.46A1.31,1.31,0,0,1,2176.67,963.13Z" style="fill:#e28b6d"/><path d="M2186.58,971.73a1.37,1.37,0,0,1-.61-.15,1.31,1.31,0,0,1-.55-1.79l10.25-19.51a1.32,1.32,0,1,1,2.34,1.23L2187.75,971A1.31,1.31,0,0,1,2186.58,971.73Z" style="fill:#e28b6d"/><polygon points="2229.35 865.36 2183.06 865.36 2175.12 849.49 2221.41 849.49 2229.35 865.36" style="fill:#102048"/><path d="M2289.81,817a40.55,40.55,0,0,1-22.88-6.9,2,2,0,1,1,2.42-3.14c.76.57,18.71,13.93,42.74-.57a2,2,0,0,1,2,3.4C2305.17,815.16,2296.87,817,2289.81,817Z" style="fill:#ba5c36"/><path d="M2347.5,1026.51a2.23,2.23,0,0,1-.56-.08,2,2,0,0,1-1.34-2.47c19-64.42,8.47-106.54,8.36-107l-.77-3,81.92,13.74a2,2,0,0,1,1.63,2.28,2,2,0,0,1-2.28,1.63l-76-12.75c2,10.78,7.45,50.38-9,106.15A2,2,0,0,1,2347.5,1026.51Z" style="fill:#ba5c36"/><path d="M2407.46,926.43h-.12a2,2,0,0,1-1.86-2.1c0-.42,2.21-43.1-27.44-86.94a2,2,0,1,1,3.29-2.22c30.44,45,28.13,89,28.11,89.41A2,2,0,0,1,2407.46,926.43Z" style="fill:#ba5c36"/><path d="M2327.44,716.59v51c0,16.48-12.84,29.83-28.69,29.83s-28.69-13.35-28.69-29.83v-51Z" style="fill:#f9b384"/><path d="M2300.33,723.4s-3,31.54-30.26,40.67V719.26Z" style="fill:#102048"/><path d="M2248.41,658.39s-8.9,71.61,19,80.11,53.4-16.18,53.4-16.18l-5.26-59.08L2274.31,639Z" style="fill:#f9b384"/><path d="M2407.24,797.57l-55.07,3.65c-7-7.67-10.91-18.45-13.49-30.63-2.33,12.53-.49,22.94,5.66,31.16l-14.92,1c-13.22-19.79-24.33-63.6-11.21-101l1.53-8.84s-9.42-28.52-23.07-29.73c0,0-46.82,31.58-67.66-3.65-15.55-26.25-2.43-60.74,35-35.29,0,0,89.88-42.17,89.67,44.28-.05,15.5,5.77,30.74,17.25,41.11a31.5,31.5,0,0,0,3.12,2.7C2394.18,728.27,2415.92,760.11,2407.24,797.57Z" style="fill:#102048"/><ellipse cx="2320.91" cy="693.33" rx="15.7" ry="13.43" transform="translate(949.35 2689.87) rotate(-72.14)" style="fill:#f9b384"/><path d="M2319.28,698.27a1.33,1.33,0,0,1-1.32-1.33c0-5.7,4.51-10.75,9.85-11h.07a1.33,1.33,0,0,1,.06,2.65c-3.54.17-7.34,3.58-7.34,8.37A1.32,1.32,0,0,1,2319.28,698.27Z" style="fill:#102048"/><path d="M2258.22,685.7a3.31,3.31,0,1,1-3.3-3.31A3.31,3.31,0,0,1,2258.22,685.7Z" style="fill:#102048"/><path d="M2278.17,684.05a3.31,3.31,0,1,1-3.3-3.31A3.3,3.3,0,0,1,2278.17,684.05Z" style="fill:#102048"/><path d="M2263,707.86a1.33,1.33,0,0,1-.93-.38c-2.69-2.63-3.79-5.12-3.27-7.42a6.87,6.87,0,0,1,3.82-4.29l-.29-6.54a1.33,1.33,0,0,1,1.27-1.38,1.35,1.35,0,0,1,1.37,1.26l.38,8.43-.94.32c-.72.26-2.69,1.25-3,2.79s1.17,3.6,2.54,4.94a1.32,1.32,0,0,1-.92,2.27Z" style="fill:#102048"/><path d="M2265.64,717.38a11.86,11.86,0,0,1-1.89-.12,1.31,1.31,0,0,1-1.1-1.5,1.38,1.38,0,0,1,1.51-1.11,17,17,0,0,0,12.65-4.15,1.32,1.32,0,0,1,1.74,2A19.66,19.66,0,0,1,2265.64,717.38Z" style="fill:#102048"/><circle cx="2291.32" cy="699.18" r="8.68" style="fill:#eb5d60;opacity:0.4000000059604645;isolation:isolate"/><rect x="97.86" y="1757.29" width="2823.14" height="5.29" style="fill:#102048"/></svg>