<svg xmlns="http://www.w3.org/2000/svg" viewBox="0 0 5768 3448"><path d="M3338.73,3392.84H1321c-69.82,0-126.42-60-126.42-133.94V134.2c0-74,56.6-133.94,126.42-133.94H3338.73c69.82,0,126.43,60,126.43,133.94V3258.9C3465.16,3332.88,3408.55,3392.84,3338.73,3392.84Z" style="fill:#86a7ff"/><path d="M2730,149.54H1929.71V291.88H2730Z" style="fill:#d3dfff"/><path d="M3238.66,508.84H1421V935.92H3238.66Z" style="fill:#dadada"/><path d="M3159.12,567.26H1500.58V877.51H3159.12Z" style="fill:#fff"/><path d="M2764.62,1306.49h-123.5c-37.06,0-67.11-31.83-67.11-71.1v-30.26c0-39.27,30-71.1,67.11-71.1h123.5c37.06,0,67.11,31.83,67.11,71.1v30.26C2831.73,1274.66,2801.68,1306.49,2764.62,1306.49Z" style="fill:#1f3c88"/><path d="M3171.55,1306.49h-123.5c-37.06,0-67.11-31.83-67.11-71.1v-30.26c0-39.27,30-71.1,67.11-71.1h123.5c37.06,0,67.11,31.83,67.11,71.1v30.26C3238.66,1274.66,3208.61,1306.49,3171.55,1306.49Z" style="fill:#1f3c88"/><path d="M3206.65,1740.05h-248c-17.65,0-32-15.16-32-33.86V1548.75c0-18.7,14.31-33.86,32-33.86h248c17.65,0,32,15.16,32,33.86v157.44C3238.61,1724.89,3224.3,1740.05,3206.65,1740.05Z" style="fill:#1f3c88"/><path d="M2708.93,1740.05h-248c-17.65,0-32-15.16-32-33.86V1548.75c0-18.7,14.31-33.86,32-33.86h248c17.65,0,32,15.16,32,33.86v157.44C2740.89,1724.89,2726.58,1740.05,2708.93,1740.05Z" style="fill:#1f3c88"/><path d="M2211.22,1740.05h-248c-17.65,0-32-15.16-32-33.86V1548.75c0-18.7,14.31-33.86,32-33.86h248c17.65,0,32,15.16,32,33.86v157.44C2243.18,1724.89,2228.87,1740.05,2211.22,1740.05Z" style="fill:#1f3c88"/><path d="M1713.5,1740.05h-248c-17.65,0-32-15.16-32-33.86V1548.75c0-18.7,14.31-33.86,32-33.86h248c17.65,0,32,15.16,32,33.86v157.44C1745.46,1724.89,1731.15,1740.05,1713.5,1740.05Z" style="fill:#1f3c88"/><path d="M3206.65,2147.26h-248c-17.65,0-32-15.16-32-33.86V1956c0-18.7,14.31-33.86,32-33.86h248c17.65,0,32,15.16,32,33.86V2113.4C3238.61,2132.1,3224.3,2147.26,3206.65,2147.26Z" style="fill:#1f3c88"/><path d="M2708.93,2147.26h-248c-17.65,0-32-15.16-32-33.86V1956c0-18.7,14.31-33.86,32-33.86h248c17.65,0,32,15.16,32,33.86V2113.4C2740.89,2132.1,2726.58,2147.26,2708.93,2147.26Z" style="fill:#d3dfff"/><path d="M2211.22,2147.26h-248c-17.65,0-32-15.16-32-33.86V1956c0-18.7,14.31-33.86,32-33.86h248c17.65,0,32,15.16,32,33.86V2113.4C2243.18,2132.1,2228.87,2147.26,2211.22,2147.26Z" style="fill:#d3dfff"/><path d="M1713.5,2147.26h-248c-17.65,0-32-15.16-32-33.86V1956c0-18.7,14.31-33.86,32-33.86h248c17.65,0,32,15.16,32,33.86V2113.4C1745.46,2132.1,1731.15,2147.26,1713.5,2147.26Z" style="fill:#d3dfff"/><path d="M3206.65,2554.47h-248c-17.65,0-32-15.16-32-33.86V2363.17c0-18.7,14.31-33.86,32-33.86h248c17.65,0,32,15.16,32,33.86v157.44C3238.61,2539.31,3224.3,2554.47,3206.65,2554.47Z" style="fill:#1f3c88"/><path d="M2708.93,2554.47h-248c-17.65,0-32-15.16-32-33.86V2363.17c0-18.7,14.31-33.86,32-33.86h248c17.65,0,32,15.16,32,33.86v157.44C2740.89,2539.31,2726.58,2554.47,2708.93,2554.47Z" style="fill:#d3dfff"/><path d="M2211.22,2554.47h-248c-17.65,0-32-15.16-32-33.86V2363.17c0-18.7,14.31-33.86,32-33.86h248c17.65,0,32,15.16,32,33.86v157.44C2243.18,2539.31,2228.87,2554.47,2211.22,2554.47Z" style="fill:#d3dfff"/><path d="M1713.5,2554.47h-248c-17.65,0-32-15.16-32-33.86V2363.17c0-18.7,14.31-33.86,32-33.86h248c17.65,0,32,15.16,32,33.86v157.44C1745.46,2539.31,1731.15,2554.47,1713.5,2554.47Z" style="fill:#d3dfff"/><path d="M3206.65,2976.05h-248c-17.65,0-32-15.16-32-33.86V2784.75c0-18.7,14.31-33.86,32-33.86h248c17.65,0,32,15.16,32,33.86v157.44C3238.61,2960.89,3224.3,2976.05,3206.65,2976.05Z" style="fill:#fbc343"/><path d="M2708.93,2976.05h-248c-17.65,0-32-15.16-32-33.86V2784.75c0-18.7,14.31-33.86,32-33.86h248c17.65,0,32,15.16,32,33.86v157.44C2740.89,2960.89,2726.58,2976.05,2708.93,2976.05Z" style="fill:#d3dfff"/><path d="M2211.22,2976.05h-248c-17.65,0-32-15.16-32-33.86V2784.75c0-18.7,14.31-33.86,32-33.86h248c17.65,0,32,15.16,32,33.86v157.44C2243.18,2960.89,2228.87,2976.05,2211.22,2976.05Z" style="fill:#d3dfff"/><path d="M1713.5,2976.05h-248c-17.65,0-32-15.16-32-33.86V2784.75c0-18.7,14.31-33.86,32-33.86h248c17.65,0,32,15.16,32,33.86v157.44C1745.46,2960.89,1731.15,2976.05,1713.5,2976.05Z" style="fill:#d3dfff"/><path d="M2798,792.73c4.78.53,10.35,0,17.9-.81a60.26,60.26,0,0,0,34.28-16.82c10.85-10.42,18.67-25.65,21.68-46.22h-.74c-9.09,11.75-22.19,18.7-38.57,18.7-29.5,0-48.41-23.5-48.41-53.16,0-32.86,22.44-61.71,56-61.71s54.19,28.85,54.19,73.19c0,38.21-12.09,64.92-28.22,81.49-12.61,13.08-30,21.1-47.65,23.24A97.91,97.91,0,0,1,2798,812Zm8.07-99.91c0,21.63,12.36,36.86,31.51,36.86,14.88,0,26.48-7.74,32.27-18.16a16.14,16.14,0,0,0,2-8.55c0-29.65-10.33-52.36-33.53-52.36C2819.42,650.61,2806.06,668.24,2806.06,692.82Z" style="fill:#3a6bea"/><path d="M2927.41,792.73c4.78.53,10.34,0,17.9-.81a60.26,60.26,0,0,0,34.28-16.82c10.84-10.42,18.66-25.65,21.68-46.22h-.74c-9.09,11.75-22.19,18.7-38.57,18.7-29.5,0-48.41-23.5-48.41-53.16,0-32.86,22.44-61.71,56-61.71s54.2,28.85,54.2,73.19c0,38.21-12.09,64.92-28.23,81.49-12.6,13.08-30,21.1-47.65,23.24a97.82,97.82,0,0,1-20.42,1.34Zm8.07-99.91c0,21.63,12.35,36.86,31.51,36.86,14.88,0,26.48-7.74,32.27-18.16a16.14,16.14,0,0,0,2-8.55c0-29.65-10.32-52.36-33.52-52.36C2948.84,650.61,2935.48,668.24,2935.48,692.82Z" style="fill:#3a6bea"/><path d="M5300.62,2437.24H4061.8V3400H5300.62Z" style="fill:#fbc343"/><path d="M5300.67,2655.2H4970.6v14.36h330.07Z" style="fill:#e49b31"/><path d="M5300.67,3182.18H4726.45v14.36h574.22Z" style="fill:#e49b31"/><path d="M4679.38,2786.1a1164.84,1164.84,0,0,1-47.75,330.42c-48.69,164.41-192.34,276.23-354.84,276.23h-215V2437.29h564.27A1166.06,1166.06,0,0,1,4679.38,2786.1Z" style="fill:#e49b31"/><path d="M3546.35,3232.16v102.62c0,36.08-27.53,65.25-61.58,65.25H2463.52c-34.05,0-61.59-29.17-61.59-65.25V3232.16c0-36.07,27.54-65.24,61.59-65.24H3484.77C3518.82,3166.92,3546.35,3196.09,3546.35,3232.16Z" style="fill:#fbc343"/><path d="M3419.8,2998.91v102.76c0,36.07-27.67,65.25-61.58,65.25H2337c-34.05,0-61.58-29.18-61.58-65.25V2998.91c0-35.94,27.54-65.25,61.58-65.25H3358.22C3392.13,2933.66,3419.8,2963,3419.8,2998.91Z" style="fill:#fbc343"/><path d="M3546.35,3232.16v102.62c0,36.08-27.53,65.25-61.58,65.25H2752.43c-50.59-66.11-81.51-151.34-100.1-233.11-21.43-93.71-27-182.67-28.21-233.26h734.1c33.91,0,61.58,29.32,61.58,65.25v102.76c0,36.07-27.67,65.25-61.58,65.25h126.55C3518.82,3166.92,3546.35,3196.09,3546.35,3232.16Z" style="fill:#e49b31"/><path d="M4083.09,1320.39l-82.47,268.32-6.1,19.84-38.26,124.6-.27.87-123.3-2.88-473.12-11.35L3325,1614.87l-5.83-17.53-91.56-276.95C3511.63,1424.59,3745.75,1196.79,4083.09,1320.39Z" style="fill:#fbc343"/><path d="M3994.52,1608.55l-38.25,124.61-123.57-2-473.13-11.35L3325,1614.87C3487.62,1611.85,3767.45,1607.83,3994.52,1608.55Z" style="fill:#e49b31"/><path d="M4523.12,3123.8c-24.28,82.21-72.44,151.19-134.69,199.77-62.4,48.58-138.9,76.46-220.15,76.46H3096.7c-154.91,0-290.82-109.66-332.06-268a1208.11,1208.11,0,0,1-38.52-276.81c-.14-8.91-.27-17.82-.27-26.73q0-15.79.41-31.56C2735,2462,2889.48,2150,3137.41,1942l256.34-215,586.66,14.37,322.48,326.94c45.36,46,85.77,97.39,118.19,154.35a1132.38,1132.38,0,0,1,94.17,214.75A1167.14,1167.14,0,0,1,4523.12,3123.8Z" style="fill:#fbc343"/><path d="M3568.92,3099.8V2979.69c-80-3.81-157.6-26.57-203-54.38l35.88-148c50.16,29,120.55,55.62,198.23,55.62,68.06,0,114.63-27.81,114.63-78.39,0-48.11-38.21-78.49-126.59-110.12-127.75-45.53-215-108.78-215-231.46,0-111.36,74.08-198.61,201.83-225.18V2067.53h117v111.36c80,3.81,133.78,21.52,173.15,41.72l-34.61,143c-31-13.91-85.94-43.06-172-43.06-77.58,0-102.66,35.43-102.66,70.87,0,41.72,41.8,68.29,143.3,108.78,142,53.15,199.4,122.68,199.4,236.61,0,112.59-75.25,208.7-212.53,234v129Z" style="fill:#fff"/><path d="M4077.48,1843H3247.63c-34.33,0-62.42-29.76-62.42-66.13v-28.13c0-36.37,28.09-66.13,62.42-66.13h829.85c34.33,0,62.42,29.76,62.42,66.13v28.13C4139.9,1813.25,4111.81,1843,4077.48,1843Z" style="fill:#ed7545"/><path d="M4523.12,3123.8c-24.28,82.21-72.44,151.19-134.69,199.77-62.4,48.58-138.9,76.46-220.15,76.46H3096.7c-154.91,0-290.82-109.66-332.06-268a1208.11,1208.11,0,0,1-38.52-276.81c177.29,179.08,386.17,413.2,874.49,420.39,606.38,8.92,867.71-292.19,914.64-838.18A1167.14,1167.14,0,0,1,4523.12,3123.8Z" style="fill:#e49b31;opacity:0.4000000059604645;isolation:isolate"/><path d="M361,3201.22,252.5,3158.1.43,3392.84h298.3Z" style="fill:#102048"/><path d="M361,3201.22H600.65l-27.13,182-274.79,9.58Z" style="fill:#f9b384"/><path d="M1322.89,2180.75l-8.81,63.67-5.29,38.37-38,275.8-14.52,105.35-12.88,94-33.78,244.9-23.47,169.88c-17.63,127.77-121,222.48-242.93,222.48H413l.68-7.18,17.23-186.84,2.44-26.3L803,3099.42l49.65-382c-24.42-111.1-18.45-218-7.87-293,9-64,21.43-104.63,21.43-104.63l164.94-50.16Z" style="fill:#1f3c88"/><path d="M1209.63,3002.83l-23.46,169.88c-17.64,127.77-121,222.48-242.94,222.48H916.1C1159,3349.13,1111.56,3020.37,1209.63,3002.83Z" style="fill:#102048"/><path d="M224.36,3300.43l-52,88.62,11.52,7.59,52-88.62Z" style="fill:#fff"/><path d="M1270.81,2558.59l-27.4,199.34c-76.37-23.14-177.06-138.78-177.06-138.78Z" style="fill:#102048"/><path d="M1832.62,3067.08s-128.86,70.06-359.45,25.15l191.59-134.74Z" style="fill:#102048"/><path d="M1761.7,3163.66l-206,4.88-1.22-47.14-3.26-129.2,183.12,14.37,8.68,49.87Z" style="fill:#f9b384"/><path d="M1743,3056.44l-188.54,65-3.26-129.2,183.12,14.37Z" style="fill:#e28b6d"/><path d="M1995.39,3394.64l-227.2-194-6.45-36.9-206.12,4.82,5.72,226.1Z" style="fill:#102048"/><path d="M1840.56,3254.94l-81.41,53.86,7.19,12.2,81.41-53.86Z" style="fill:#fff"/><path d="M866.17,2319.73l737.29-124.06a171.42,171.42,0,0,1,101.71,14.14c63.41,29.86,105.07,95.55,107.21,169l20.24,688.23s-210.24-46.71-359.45,25.15l-13.57-470.69c-90.14,43.49-246.3,52.7-404.55,35.93Z" style="fill:#1f3c88"/><path d="M1728.74,3045.52h-13.56c0-119.09,2.71-217.95,5.1-305.17,5.83-212.39,9-329.39-42-378.89-41.33-40.07-123.91-38.82-243.74-23.8-128.41,15.85-179.62-129-180.12-130.46l12.76-4.91c1.91,5.56,48,136.1,165.77,121.08,126.83-15.86,209.14-16.48,254.49,27.49,55.65,54,52.57,166.23,46.43,389.92C1731.45,2827.89,1728.74,2926.63,1728.74,3045.52Z" style="fill:#3a6bea"/><path d="M1473.42,3005.53l-4.81-13.44c1.72-.68,173.7-68.49,363.51-18.22l-3.3,14C1643.33,2938.64,1475.11,3004.84,1473.42,3005.53Z" style="fill:#3a6bea"/><path d="M488.32,3397.26c-21.12-44.78,11.57-230.22,13-238.1l13.33,2.68c-9.31,52.29-30,195.4-14.16,229Z" style="fill:#3a6bea"/><path d="M1249.51,2262.24s-52.08,117.42-169.55,196.47c-39.88,26.73-79.08,38.94-114.21,39.09-53,.14-97.12-27.16-121-73.44,9-64,21.43-104.63,21.43-104.63l164.94-50.16,166.43-5.61Z" style="fill:#102048"/><path d="M1117.11,1554.56v166.33h153.73V1577Z" style="fill:#ed7545"/><path d="M1270.84,1474.17H1117.11v80.39L1270.84,1577Z" style="fill:#f9b384"/><path d="M1162.43,1496.92c3.39,0,37.08,56,108.4,80.1l-1-87.28Z" style="fill:#102048"/><path d="M1288.92,1275.35s84.78,241.94-24.87,257.5-126.6-37.12-126.6-37.12l-33.91-128.16,75.73-107.79Z" style="fill:#f9b384"/><path d="M1340.82,1392c.24-13.89-10.19-25.36-23.3-25.62s-23.93,10.8-24.17,24.69,10.19,25.35,23.3,25.61S1340.57,1405.92,1340.82,1392Z" style="fill:#f9b384"/><path d="M1173.62,1390.33s5.65-129.35,115.3-115c0,0-73.79-100.41-171-61.47-49.37,19.77-82.41,69.73-87.24,125.42-6.25,72,33.43,154,88.81,168.4,0,0,18.09-44.31,48.5-100.6Z" style="fill:#102048"/><path d="M1199.84,1384.28c9.17,20.65,3.09,44.12-13.58,52.43s-37.6-1.71-46.77-22.36-3.08-44.12,13.58-52.43S1190.68,1363.63,1199.84,1384.28Z" style="fill:#f9b384"/><path d="M1282.86,1406.42c.24-18.19-13.47-33.14-30.64-33.4s-31.28,14.27-31.53,32.46,13.47,33.14,30.64,33.4S1282.61,1424.61,1282.86,1406.42Z" style="fill:#eb5d60;opacity:0.4000000059604645;isolation:isolate"/><path d="M1176.56,1413.08a3.5,3.5,0,0,1-3.39-3.58c0-.85-.4-20.89-21.38-24a3.6,3.6,0,0,1,.94-7.13c26.91,4,27.22,30.85,27.22,31.12a3.5,3.5,0,0,1-3.38,3.59Z" style="fill:#102048"/><path d="M1690.2,1317.27s118.58,9.58,183.12,89.83l-146.84,38.33Z" style="fill:#ba5c36"/><path d="M1900.33,1248.43c.54,11.5-29.3,68.85-51.27,109.52-12.89,23.42-22.93,41.25-22.93,41.25l-79.08,24.43-56.43-90.11-2.71-4.46s.81-3.88,2.31-10.78v-.14c.13-.14.13-.43.27-.86,9.49-42.69,43.13-188.13,62.53-193,17.09-4.17,7,75.45,7,75.45s42.19-129.49,67.15-124.17c19.94,4.17-19.13,128.34-19.13,128.34s14-15.52,28.08-10.63c15,5.31,16.95,20.26,16.95,20.26s10-7.47,20.08-1.15c10,6.47,9.09,26.59,9.09,26.59S1899.24,1230.46,1900.33,1248.43Z" style="fill:#f9b384"/><path d="M1081.18,1662.49,1027.46,1885,944.18,2229.9c-56.56,26.59-116.25,36.36-163.59,28-54.93-9.63-93.32-43.55-90.74-103.48C696.63,1992.76,1081.18,1662.49,1081.18,1662.49Z" style="fill:#ed7545"/><path d="M1070.87,1725.68,1027.47,1885,944.18,2229.9c-56.56,26.59-116.24,36.36-163.58,28C901.32,1891,1070.87,1725.68,1070.87,1725.68Z" style="fill:#ba5c36"/><path d="M1406.59,2229c-111.91,8.05-464.58,317.05-549.36,117.71,0,0,11.8-743.61,374.11-729.82,64.16,2.44,120.45,47.72,139.84,112.54,8.69,29.32,17.37,67.54,24.15,116.7,6.92,49.87,12.07,111.09,13.84,185.68C1410.66,2089.34,1410,2154.73,1406.59,2229Z" style="fill:#ed7545"/><path d="M1409.17,2031.85c-56-38.37-114.49-154.07-114.49-154.07l100.65-31.62C1402.25,1896,1407.4,1957.26,1409.17,2031.85Z" style="fill:#ba5c36"/><path d="M1849.06,1357.94c-12.89,23.43-22.93,41.25-22.93,41.25l-79.08,24.44-56.43-90.12-.4-15.23v-1h.27Z" style="fill:#e28b6d"/><path d="M1231.36,1616.94s174,12.93,279.11,34.48l179.73-334.15q82.33,69.81,183.11,89.83L1716,1799.78c-34.69,74.58-105.28,122.89-183.7,125.73l-269.39,9.76Z" style="fill:#ed7545"/><path d="M1510.48,1656.82a5.07,5.07,0,0,1-.94-.09c-3.31-.66-331.84-64.48-387.82-12a4.9,4.9,0,0,1-7.19-.47,5.62,5.62,0,0,1,.45-7.61c59.66-55.88,382.7,6.82,396.42,9.52a5.38,5.38,0,0,1,4.07,6.28A5.18,5.18,0,0,1,1510.48,1656.82Z" style="fill:#ba5c36"/><path d="M5110.78,3086.24l22.61,306.6H4757l189.9-138.93-3.4-191.62Z" style="fill:#102048"/><path d="M5665.78,2955.69,5767.51,3218l-257.72,230,37.31-258.7-50.87-172.47Z" style="fill:#102048"/><path d="M5210.29,1476.52c-3.4,10.06-6.52,23-9.5,38.23-5,26.59-9.36,60.5-13,100.46-11.94,130.5-17,324.38-18.31,530.33-2.85,463.79,13.7,988.66,13.7,988.66l-68.91-1.15-169.55-2.73-60-1c-90.88-734.7-65-1355.14-51.27-1571.16.4-7.47.95-14.37,1.22-20.84,2.85-39.66,4.75-60.79,4.75-60.79Z" style="fill:#1f3c88"/><path d="M5730.21,3024l-34.46,9.05-180.67,47.86-110.42,29.32s-130.76-514.09-235.2-964.65c-50.19-217.31-94.41-419.81-114.76-542.7-7.05-43.4-11.26-76.89-11.8-97.58l157.89,9.48,199.4,12.08s4.88,30.32,14.37,84.79C5452.54,1828.78,5563.91,2430.11,5730.21,3024Z" style="fill:#1f3c88"/><path d="M5414.56,1611.61a1617.11,1617.11,0,0,1-226.79,3.6c-47.61-2.59-92.24-7-133.07-12.36-100.92-13.37-178.78-32.77-221.23-44.7-23.19-6.61-35.81-10.92-35.81-10.92l37-9.92,228.42-60.8h147.17c-3.39,10.06-6.51,23-9.49,38.23l199.39,12.08S5405.07,1557.14,5414.56,1611.61Z" style="fill:#102048"/><path d="M5176.51,2201.63c-11-48.73-62.79-279.51-69.54-318.59l-104.84-41.64,4.77-13.46,112.9,44.86v5c.78,10.65,42.24,197.55,69.9,320.51Z" style="fill:#3a6bea"/><path d="M4910.34,2412c-49.33,0-80.66-13-82.41-13.72l5-13.35c.54.25,55.88,22.95,134.09,6.82l2.6,14.11A293.36,293.36,0,0,1,4910.34,2412Z" style="fill:#3a6bea"/><path d="M5303,2401.88a334.72,334.72,0,0,1-60.15-5.63l2.52-14.13c.94.2,92.66,18.19,135-13.18l7.77,11.76C5365.63,2397.44,5332.17,2401.88,5303,2401.88Z" style="fill:#3a6bea"/><path d="M4951.17,3248.5l-8.25,11.41,53.13,43.12,8.25-11.4Z" style="fill:#fff"/><path d="M5549.68,3182.62l-5.1,13.31,72.34,31.12,5.1-13.3Z" style="fill:#fff"/><path d="M5011.31,690.89s-232.86,31.14-291.64,309l70.09,330.56-31.65,220.37s316.5,33.54,642-24l-98.91-561.71Z" style="fill:#ed7545"/><path d="M5156,1395.12s-70.08-54.49,21.48-293.43l61,235.35Z" style="fill:#6e3620"/><path d="M4882.91,1094.8,4866,1060.93l260.54-146.16c7.28-4.08,16.31-1.14,20.16,6.57l3,5.94c3.86,7.71,1.08,17.27-6.2,21.36Z" style="fill:#102048"/><path d="M5214.76,1317.27l-6.91-4-89.94-51.45-150.69-86.38c-2.72-19.26-.68-35.64,10.17-46.85l-7.46-3.17c-12.21-5.46-21.16-17.1-23.6-31l-.27-1.73c-3.94-13.94-2-26.87-.82-34.06l3.53-4.88c8.81-12.22,12.75-18.4,24.14-28l-19.26,1.15s-47.47,13.8-25.36-18.54c15.19-22.42,49.24-41.39,68.63-50.88a20.44,20.44,0,0,1,24.28,4.6c65.24,71.72,180,157.66,180,157.66l1.22,17.54,11.12,161.39Z" style="fill:#f9b384"/><path d="M5036.93,1042.65l-41.05-21.25a21.2,21.2,0,0,0-13.75-2.07l-43.72,8.05-1.17-7.08,43.72-8a27.79,27.79,0,0,1,17.91,2.69l41.05,21.25Z" style="fill:#e28b6d"/><path d="M5029.31,1083.49l-49.24-20a18.13,18.13,0,0,0-6.85-1.34h-28V1055h28a24.64,24.64,0,0,1,9.27,1.81l49.24,20Z" style="fill:#e28b6d"/><path d="M5022.53,1124.21l-44.71-17.89a22.63,22.63,0,0,0-11.11-1.47l-18.32,2.21-.78-7.14,18.33-2.21a29.26,29.26,0,0,1,14.28,1.89l44.71,17.9Z" style="fill:#e28b6d"/><path d="M5213.54,1298.59l-5.7,14.66-89.93-51.45,59.55-160.11,25,35.5Z" style="fill:#e28b6d"/><path d="M5156,1395.12s134.52,135.34,244.16,131.75l-31.66-159.29Z" style="fill:#ba5c36"/><path d="M5011.31,690.89s16.56-1.82,44.17-.82C5327,699.91,5535,947.45,5521.75,1235c-5.48,118.85-34.62,236.84-128.38,239.2L5156,1395.12c22.39-88.95,39.1-181.2,21.48-293.43l110.21,55.69Z" style="fill:#ed7545"/><path d="M5088.75,1384.1,4757,1392.73l-9.09-29.75-33.37-108.66L4617.93,940l331.79-8.63Z" style="fill:#d3dfff"/><path d="M4784.91,1216.67s-.54,97.15-37,146.3l-33.37-108.65Z" style="fill:#1f3c88;opacity:0.30000001192092896;isolation:isolate"/><path d="M4624,1209.08c10.44-35.76,29.49-68.75,50.43-98.52,6.66-9.48,21.16-32.77,35.07-29.23,28.26,7.18,0,59.88,0,59.88s27.13-43.12,37.3-21.56-4.52,45.52-4.52,45.52,43-30,27.13,29.94c0,0,35-4.79,13.57,35.92-15.33,29.07-25.26,61.46-44.46,88.17-19.35,26.9-55.7,42-85.89,26.66-35.51-18-40.05-66.14-35.67-102.78A210,210,0,0,1,4624,1209.08Z" style="fill:#f9b384"/><path d="M4684.91,1199.6a3.36,3.36,0,0,1-1.37-.3,3.68,3.68,0,0,1-1.73-4.75L4714,1117.3a3.32,3.32,0,0,1,4.47-1.83,3.68,3.68,0,0,1,1.73,4.74L4688,1197.46A3.39,3.39,0,0,1,4684.91,1199.6Z" style="fill:#e28b6d"/><path d="M4718,1228.35a3.16,3.16,0,0,1-1.43-.34,3.69,3.69,0,0,1-1.64-4.78l30.52-69.16a3.32,3.32,0,0,1,4.5-1.73,3.69,3.69,0,0,1,1.64,4.78L4721,1226.28A3.37,3.37,0,0,1,4718,1228.35Z" style="fill:#e28b6d"/><path d="M4743.4,1251.7a3.2,3.2,0,0,1-1.58-.42,3.7,3.7,0,0,1-1.42-4.85l26.29-53a3.31,3.31,0,0,1,4.58-1.5,3.7,3.7,0,0,1,1.42,4.85l-26.29,53A3.36,3.36,0,0,1,4743.4,1251.7Z" style="fill:#e28b6d"/><path d="M4853.05,962.76H4734.36L4714,919.65H4832.7Z" style="fill:#102048"/><path d="M5008.09,831.26c-35.2,0-58.34-18.45-58.68-18.73a5.62,5.62,0,0,1-.92-7.55,4.91,4.91,0,0,1,7.13-1c1.94,1.56,48,37.85,109.58-1.54a4.93,4.93,0,0,1,7,1.83,5.58,5.58,0,0,1-1.74,7.4C5047.45,826.39,5026.17,831.26,5008.09,831.26Z" style="fill:#ba5c36"/><path d="M5156,1400.51a5.26,5.26,0,0,1-1.45-.22,5.48,5.48,0,0,1-3.43-6.71c48.77-175,21.71-289.39,21.43-290.53l-2-8,210.07,37.3a5.37,5.37,0,0,1,4.17,6.21,5.15,5.15,0,0,1-5.85,4.42l-195-34.62c5.21,29.27,19.1,136.85-23.12,288.34A5.14,5.14,0,0,1,5156,1400.51Z" style="fill:#ba5c36"/><path d="M5309.71,1128.64h-.3a5.29,5.29,0,0,1-4.77-5.71c.06-1.15,5.68-117.09-70.35-236.19a5.6,5.6,0,0,1,1.36-7.48,4.92,4.92,0,0,1,7.07,1.45c78.05,122.27,72.15,241.69,72.07,242.88A5.22,5.22,0,0,1,5309.71,1128.64Z" style="fill:#ba5c36"/><path d="M5104.55,558.61V697.3c0,44.76-32.92,81-73.55,81s-73.56-36.26-73.56-81V558.61Z" style="fill:#f9b384"/><path d="M5035,577.11s-7.63,85.7-77.59,110.49V565.86Z" style="fill:#102048"/><path d="M4901.93,400.51s-22.82,194.54,48.76,217.63,136.93-44,136.93-44l-13.49-160.48-105.81-65.94Z" style="fill:#f9b384"/><path d="M5309.17,778.61,5168,788.53c-17.87-20.85-28-50.14-34.58-83.22-6,34-1.25,62.32,14.51,84.65l-38.25,2.73c-33.91-53.75-62.4-172.75-28.76-274.51l3.93-24s-24.14-77.46-59.14-80.77c0,0-120,85.8-173.49-9.92-39.87-71.28-6.24-165,89.66-95.86,0,0,230.46-114.55,229.92,120.3-.14,42.11,14.78,83.5,44.22,111.67a81.26,81.26,0,0,0,8,7.33C5275.66,590.33,5331.41,676.85,5309.17,778.61Z" style="fill:#102048"/><path d="M5120.59,506.62c6.81-22.41-2.34-45.59-20.44-51.77s-38.3,7-45.12,29.4,2.34,45.6,20.44,51.78S5113.77,529,5120.59,506.62Z" style="fill:#f9b384"/><path d="M5083.64,508.84a3.5,3.5,0,0,1-3.39-3.59c0-15.5,11.57-29.21,25.26-29.94h.16a3.6,3.6,0,0,1,.18,7.18c-9.09.48-18.82,9.74-18.82,22.76A3.49,3.49,0,0,1,5083.64,508.84Z" style="fill:#102048"/><path d="M4927.09,474.71a8.49,8.49,0,1,1-8.48-9A8.74,8.74,0,0,1,4927.09,474.71Z" style="fill:#102048"/><path d="M4978.24,470.22a8.49,8.49,0,1,1-8.48-9A8.74,8.74,0,0,1,4978.24,470.22Z" style="fill:#102048"/><path d="M4939.24,534.89a3.26,3.26,0,0,1-2.37-1c-6.9-7.15-9.71-13.92-8.38-20.15s6.64-10,9.8-11.67l-.75-17.75a3.4,3.4,0,1,1,6.78-.32l1,22.89-2.4.88c-1.87.69-6.91,3.39-7.78,7.58-1,4.51,3,9.78,6.51,13.4a3.76,3.76,0,0,1,.06,5.08A3.29,3.29,0,0,1,4939.24,534.89Z" style="fill:#102048"/><path d="M4946.09,560.77a31.33,31.33,0,0,1-4.84-.32,3.6,3.6,0,0,1,1.05-7.1,41.8,41.8,0,0,0,32.45-11.28,3.22,3.22,0,0,1,4.77.34,3.73,3.73,0,0,1-.33,5.07A48.68,48.68,0,0,1,4946.09,560.77Z" style="fill:#102048"/><path d="M5011.93,534.89c12.3,0,22.26-10.56,22.26-23.58s-10-23.58-22.26-23.58-22.25,10.56-22.25,23.58S4999.64,534.89,5011.93,534.89Z" style="fill:#eb5d60;opacity:0.4000000059604645;isolation:isolate"/></svg>